<svg width="19" height="20" viewBox="0 0 19 20" fill="none" xmlns="http://www.w3.org/2000/svg">
<path fill-rule="evenodd" clip-rule="evenodd" d="M7.71875 7.86426V0.145508L11.2812 0.151445V7.8702H13.6384C13.7604 7.85751 13.8775 7.92106 13.9334 8.03017C13.9893 8.13928 13.9723 8.2715 13.8908 8.36301L9.85031 13.9205C9.76937 14.0324 9.63962 14.0987 9.50148 14.0987C9.36335 14.0987 9.2336 14.0324 9.15266 13.9205L5.10625 8.35707C5.02469 8.26556 5.00776 8.13334 5.06362 8.02423C5.11949 7.91512 5.23667 7.85157 5.35859 7.86426H7.71875ZM19 12.9111H16.0312V16.4736H2.96875V12.9111H0V17.6611C0 18.6449 0.797493 19.4424 1.78125 19.4424H17.2188C18.2025 19.4424 19 18.6449 19 17.6611V12.9111Z" fill="#00A0E3"/>
</svg>
