<svg width="38" height="48" viewBox="0 0 38 48" fill="none" xmlns="http://www.w3.org/2000/svg">
<path fill-rule="evenodd" clip-rule="evenodd" d="M32.8496 23.4V19.3V17.45V14.35C32.8496 13.9 32.7996 13.45 32.6496 13L33.7496 12.85C34.3996 12.75 34.8996 12.2 34.8996 11.55V9.85C34.8996 9.1 34.2996 8.5 33.5496 8.5H31.5496L30.5496 4.25C29.9996 1.9 27.9496 0.25 25.4996 0.25H12.4996C10.0996 0.25 7.99961 1.9 7.44961 4.25L6.44961 8.5H4.44961C3.69961 8.5 3.09961 9.1 3.09961 9.85V11.55C3.09961 12.2 3.59961 12.75 4.24961 12.85L5.34961 13C5.19961 13.4 5.14961 13.85 5.14961 14.35V17.45V19.3V23.4C5.14961 24.15 5.74961 24.75 6.49961 24.75H10.6496C11.2996 24.75 11.8496 24.3 11.9496 23.65L12.5496 20.65H25.5496L26.1496 23.65C26.2496 24.3 26.7996 24.75 27.4496 24.75H31.4996C32.2496 24.75 32.8496 24.15 32.8496 23.4ZM10.4496 4.95C10.6496 4 11.4996 3.3 12.4996 3.3H25.4996C26.4996 3.3 27.3496 3.95 27.5496 4.95L28.6996 9.85H9.29961L10.4496 4.95ZM8.09961 16.7L12.3996 16.9C12.8996 16.9 13.2496 16.45 13.0996 16.05L12.8496 15C12.7996 14.75 12.5996 14.55 12.3496 14.5C11.6274 14.3194 10.0494 13.8944 8.79291 13.5559L8.79256 13.5558L8.39961 13.45C7.94961 13.3 7.54961 13.6 7.49961 14C7.42289 14.4987 7.43446 15.1151 7.444 15.6235C7.4469 15.7777 7.44961 15.922 7.44961 16.05C7.44961 16.4 7.74961 16.7 8.09961 16.7ZM22.3996 16.15C22.3996 16.4 22.1996 16.55 21.9996 16.55H15.9996C15.7496 16.55 15.5996 16.35 15.5996 16.15V15.35C15.5996 15.1 15.7996 14.95 15.9996 14.95H21.9996C22.2496 14.95 22.3996 15.15 22.3996 15.35V16.15ZM29.8996 16.7C30.2496 16.7 30.5496 16.4 30.5496 16.05C30.5496 15.922 30.5523 15.7777 30.5552 15.6235C30.5648 15.1151 30.5763 14.4987 30.4996 14C30.3996 13.6 29.9996 13.35 29.5996 13.45C29.4733 13.484 29.3417 13.5195 29.2065 13.5559C27.9499 13.8944 26.3719 14.3194 25.6496 14.5C25.3996 14.55 25.1996 14.75 25.1496 15L24.8996 16.05C24.7996 16.5 25.1496 16.9 25.5996 16.9L29.8996 16.7Z" fill="#00A0E3"/>
<path d="M8.50031 27.75H5.45031C5.10031 27.75 4.80031 28 4.70031 28.35L0.050306 46.8C-0.049694 47.3 0.300306 47.75 0.800306 47.75H3.85031C4.20031 47.75 4.50031 47.5 4.60031 47.15L9.25031 28.7C9.40031 28.25 9.00031 27.75 8.50031 27.75Z" fill="#00A0E3"/>
<path d="M37.9495 46.8L33.2995 28.35C33.1995 28 32.8995 27.75 32.5495 27.75H29.4995C28.9995 27.75 28.6495 28.2 28.7495 28.7L33.3995 47.15C33.4995 47.5 33.7995 47.75 34.1495 47.75H37.1995C37.6995 47.75 38.0995 47.3 37.9495 46.8Z" fill="#00A0E3"/>
<path d="M20.4002 42.2H17.4502C17.0002 42.2 16.7002 42.55 16.7002 42.95V46.95C16.7002 47.4 17.0502 47.7 17.4502 47.7H20.4002C20.8502 47.7 21.1502 47.35 21.1502 46.95V42.95C21.1502 42.55 20.8502 42.2 20.4002 42.2Z" fill="#00A0E3"/>
<path d="M20.4002 33.3H17.4502C17.0002 33.3 16.7002 33.65 16.7002 34.05V38.05C16.7002 38.5 17.0502 38.8 17.4502 38.8H20.4002C20.8502 38.8 21.1502 38.45 21.1502 38.05V34.05C21.1502 33.65 20.8502 33.3 20.4002 33.3Z" fill="#00A0E3"/>
<path d="M20.4002 24.4H17.4502C17.0002 24.4 16.7002 24.75 16.7002 25.15V29.15C16.7002 29.6 17.0502 29.9 17.4502 29.9H20.4002C20.8502 29.9 21.1502 29.55 21.1502 29.15V25.15C21.1502 24.75 20.8502 24.4 20.4002 24.4Z" fill="#00A0E3"/>
</svg>
