<svg width="13" height="9" viewBox="0 0 13 9" fill="none" xmlns="http://www.w3.org/2000/svg">
<path fill-rule="evenodd" clip-rule="evenodd" d="M0.614816 0.0677083C0.726405 0.0255512 0.847643 0 0.975363 0H12.0254C12.1531 0 12.2743 0.0255512 12.3859 0.0677083L6.86091 4.65738C6.62196 4.85586 6.36805 4.85572 6.12966 4.65738L0.614816 0.0677083ZM0 0.928579C0 0.884611 0.00400887 0.840303 0.0101562 0.797991L5.48945 5.35864C6.06215 5.83516 6.92766 5.8344 7.50039 5.35864L12.9898 0.797991C12.996 0.840303 13 0.884611 13 0.928579V7.11906C13 7.63347 12.5651 8.04763 12.025 8.04763H0.975C0.43486 8.04763 0 7.63347 0 7.11906V0.928579Z" fill="#9496A0"/>
</svg>
