<svg width="18" height="13" viewBox="0 0 18 13" fill="none" xmlns="http://www.w3.org/2000/svg">
<path fill-rule="evenodd" clip-rule="evenodd" d="M0.850781 0.311466C1.00529 0.252446 1.17316 0.216675 1.35 0.216675H16.65C16.8268 0.216675 16.9947 0.252446 17.1492 0.311466L9.49922 6.737C9.16837 7.01488 8.81679 7.01468 8.48672 6.737L0.850781 0.311466ZM0 1.51667C0 1.45512 0.00555075 1.39309 0.0140625 1.33385L7.60078 7.71876C8.39375 8.38588 9.59214 8.38482 10.3852 7.71876L17.9859 1.33385C17.9944 1.39309 18 1.45512 18 1.51667V10.1833C18 10.9035 17.3979 11.4833 16.65 11.4833H1.35C0.602114 11.4833 0 10.9035 0 10.1833V1.51667Z" fill="#00A0E3"/>
</svg>
