<svg width="67" height="59" viewBox="0 0 67 59" fill="none" xmlns="http://www.w3.org/2000/svg">
<path fill-rule="evenodd" clip-rule="evenodd" d="M33.7759 0.656182L50.2615 29.145L66.7484 57.6336L66.9805 58.0346H0.11084L0.342864 57.6336L33.3145 0.656182L33.5452 0.257812L33.7759 0.656182Z" fill="#3393CA"/>
<path fill-rule="evenodd" clip-rule="evenodd" d="M25.179 33.9304C22.3294 39.0841 30.921 41.2513 28.5274 33.4849C27.8632 31.3282 27.1913 28.7553 27.1913 25.8901C27.1913 19.0708 30.0335 13.2225 33.5169 13.5447C34.1005 13.5964 35.286 13.9762 35.9046 14.4536C32.0699 14.1178 32.9091 19.5587 33.5079 22.1577C35.9334 32.7204 42.4081 26.1761 37.5263 22.8748C49.8686 27.0394 49.1056 55.6958 33.1476 54.4569C25.7536 53.8811 19.1879 44.4993 22.2033 37.1765C22.5787 36.2602 23.4573 34.2175 25.179 33.9304ZM42.177 39.5872C42.0416 36.8559 40.4 33.1126 38.578 32.6597C39.6904 33.3133 39.7421 35.8408 39.7421 36.5551C38.6266 34.3786 35.342 31.2415 32.5337 31.848C33.5624 32.1352 36.2996 33.1413 31.88 39.7708C31.1945 40.7922 30.4011 41.7785 29.7004 42.7846C27.208 46.3595 29.0304 49.7973 33.0519 50.5981C36.1249 51.2109 39.9534 49.6557 41.3397 45.5218C41.9731 43.6433 42.2742 41.5174 42.177 39.5872Z" fill="white"/>
</svg>
