<svg width="84" height="78" viewBox="0 0 84 78" fill="none" xmlns="http://www.w3.org/2000/svg">
<path fill-rule="evenodd" clip-rule="evenodd" d="M41.3038 0.4661L60.5845 33.7986L79.8667 67.1308L80.138 67.6H1.93115L2.20252 67.1308L40.7642 0.4661L41.034 0L41.3038 0.4661Z" fill="#3393CA"/>
<path fill-rule="evenodd" clip-rule="evenodd" d="M33.5622 34.2436C30.9031 38.954 38.9203 40.9347 36.6867 33.8364C36.067 31.8653 35.44 29.5137 35.44 26.895C35.44 20.6623 38.0922 15.3171 41.3427 15.6116C41.8873 15.6589 42.9936 16.006 43.5708 16.4423C39.9924 16.1354 40.7756 21.1082 41.3343 23.4837C43.5977 33.1377 49.6395 27.1564 45.0841 24.139C56.6013 27.9454 55.8893 54.1366 40.9981 53.0043C34.0984 52.478 27.9717 43.9033 30.7855 37.2104C31.1358 36.373 31.9556 34.506 33.5622 34.2436ZM49.4238 39.4138C49.2975 36.9174 47.7657 33.4961 46.0655 33.0822C47.1035 33.6796 47.1517 35.9896 47.1517 36.6425C46.1108 34.6533 43.0458 31.786 40.4252 32.3404C41.3852 32.6028 43.9393 33.5224 39.8153 39.5816C39.1756 40.5151 38.4353 41.4165 37.7814 42.3361C35.4556 45.6034 37.1562 48.7456 40.9088 49.4774C43.7763 50.0375 47.3489 48.6161 48.6425 44.8378C49.2336 43.121 49.5146 41.1779 49.4238 39.4138Z" fill="white"/>
<path fill-rule="evenodd" clip-rule="evenodd" d="M12.2351 61.4833H12.4514L13.6178 59.0181H14.7841L12.1424 64.5186H10.9915L11.7794 62.87L9.74023 59.0181H10.9452L12.2351 61.4833ZM20.2547 59.0181V60.0273H18.54V64.5186H17.3891V60.0273H15.6743V59.0181H20.2547ZM21.647 59.0181H22.7206V62.8546H22.9215L24.9066 59.0181H26.4591V64.5186H25.3778V60.5974H25.1769L23.1455 64.5186H21.647V59.0181ZM27.8823 63.3938H28.0754C28.6856 63.3938 28.9405 63.2166 28.9405 61.4525V59.0181H32.9802V64.5186H31.8216V60.0427H30.0296V61.5295C30.0296 64.0795 29.404 64.5186 28.0831 64.5186H27.8823V63.3938ZM34.8823 59.0181H35.956V62.8546H36.1568L38.1419 59.0181H39.6944V64.5186H38.6131V60.5974H38.4122L36.3808 64.5186H34.8823V59.0181ZM44.5549 60.5666C44.5549 60.1429 44.1532 59.9426 43.6589 59.9426C43.1027 59.9426 42.7397 60.1352 42.6547 60.5743H41.4652C41.5811 59.5189 42.4075 58.918 43.6743 58.918C44.9797 58.918 45.7366 59.5574 45.7366 60.4279C45.7366 61.0134 45.4663 61.3446 45.1805 61.4987V61.699C45.6208 61.8608 45.9375 62.2383 45.9375 62.9239C45.9375 63.8715 45.111 64.6187 43.682 64.6187C42.1681 64.6187 41.388 63.9485 41.2566 62.8469H42.4693C42.6006 63.3476 43.0023 63.5941 43.682 63.5941C44.3309 63.5941 44.7325 63.3168 44.7325 62.8777C44.7325 62.4463 44.4467 62.192 43.767 62.192H42.956V61.1906H43.767C44.3618 61.1906 44.5549 60.9055 44.5549 60.5666ZM51.2304 64.5186L50.7824 63.0317H48.6815L48.2335 64.5186H47.098L48.8514 59.0181H50.6357L52.3968 64.5186H51.2304ZM49.5543 60.1197L48.975 62.0303H50.4735L49.8942 60.1197H49.5543ZM58.1223 65.8667V64.5186H53.8045V59.0181H54.9554V63.494H57.3035V59.0181H58.4544V63.494H59.2423V65.8667H58.1223ZM60.6964 59.0181H61.77V62.8546H61.9709L63.956 59.0181H65.5085V64.5186H64.4271V60.5974H64.2263L62.1949 64.5186H60.6964V59.0181ZM69.1022 59.0181H71.6975V64.5186H70.5466V62.4463H69.0558L68.3143 64.5186H67.1557L67.9822 62.1997C67.4569 61.9224 67.1634 61.414 67.1634 60.7283C67.1634 59.6498 67.874 59.0181 69.1022 59.0181ZM70.5466 61.4679V60.0273H69.3802C68.6155 60.0273 68.3375 60.2276 68.3375 60.7437C68.3375 61.206 68.5846 61.4679 69.2644 61.4679H70.5466Z" fill="white"/>
<path fill-rule="evenodd" clip-rule="evenodd" d="M0.712402 76.0741V71.7061H3.99709V72.3474H1.45102V76.0741H0.712402ZM7.78795 72.2348C6.81471 72.2348 6.41499 73.0321 6.41499 73.8901C6.41499 74.7481 6.81471 75.5454 7.78795 75.5454C8.66561 75.5454 9.13485 74.8608 9.13485 73.8901C9.13485 72.9194 8.66561 72.2348 7.78795 72.2348ZM5.68506 71.7061H6.39761V72.1741H6.58878C6.83209 71.8708 7.25788 71.5934 7.95306 71.5934C9.16092 71.5934 9.87347 72.5988 9.87347 73.8901C9.87347 75.2074 9.16092 76.1868 7.95306 76.1868C7.25788 76.1868 6.84947 75.9181 6.61485 75.6061H6.42368V77.8074H5.68506V71.7061ZM12.8127 77.8074H12.0654L12.9692 75.6668L11.1009 71.7061H11.8916L13.2299 74.5834H13.4471L14.6636 71.7061H15.437L12.8127 77.8074ZM20.8789 76.0741H20.1403V72.3474H17.7506V76.0741H17.012V71.7061H20.8789V76.0741ZM26.877 76.0741H26.1383V72.3474H23.7487V76.0741H23.0101V71.7061H26.877V76.0741ZM31.7975 76.0741V75.6148H31.6063C31.3369 75.9528 30.8677 76.1868 30.242 76.1868C29.234 76.1868 28.6692 75.5108 28.6692 74.7654C28.6692 74.0634 29.1297 73.3181 30.3463 73.3181H31.7714V73.1448C31.7714 72.6161 31.4673 72.2348 30.7026 72.2348C30.0508 72.2348 29.7206 72.4861 29.6859 72.8674H28.9473C29.0081 72.0614 29.7033 71.5934 30.6852 71.5934C31.7888 71.5934 32.4926 72.1221 32.4926 73.1014V76.0741H31.7975ZM30.4245 75.5454C31.1544 75.5454 31.7714 74.9994 31.7714 74.3061V73.9074H30.4593C29.738 73.9074 29.4078 74.2194 29.4078 74.7394C29.4078 75.2334 29.7728 75.5454 30.4245 75.5454ZM40.7 76.0741L39.7268 74.1501H38.4146V76.0741H37.676V71.7061H38.4146V73.5088H39.7442L40.6566 71.7061H41.43L40.3611 73.8121L41.4908 76.0741H40.7ZM45.0036 71.5934C46.3679 71.5934 47.1586 72.5988 47.1586 73.8901C47.1586 75.1814 46.3679 76.1868 45.0036 76.1868C43.6306 76.1868 42.8485 75.1814 42.8485 73.8901C42.8485 72.5988 43.6306 71.5934 45.0036 71.5934ZM45.0036 75.5454C45.9681 75.5454 46.42 74.7481 46.42 73.8901C46.42 73.0321 45.9681 72.2348 45.0036 72.2348C44.0303 72.2348 43.5872 73.0321 43.5872 73.8901C43.5872 74.7481 44.0303 75.5454 45.0036 75.5454ZM49.0204 76.0741V71.7061H50.1935L51.271 73.6994H51.4622L52.5397 71.7061H53.6954V76.0741H52.9742V72.5641H52.783L51.7663 74.4361H50.9495L49.9328 72.5641H49.7416V76.0741H49.0204ZM59.6934 76.0741H58.9548V72.3474H56.5652V76.0741H55.8265V71.7061H59.6934V76.0741ZM64.614 76.0741V75.6148H64.4228C64.1534 75.9528 63.6842 76.1868 63.0585 76.1868C62.0505 76.1868 61.4857 75.5108 61.4857 74.7654C61.4857 74.0634 61.9462 73.3181 63.1628 73.3181H64.5879V73.1448C64.5879 72.6161 64.2837 72.2348 63.5191 72.2348C62.8673 72.2348 62.5371 72.4861 62.5024 72.8674H61.7637C61.8246 72.0614 62.5197 71.5934 63.5017 71.5934C64.6053 71.5934 65.3091 72.1221 65.3091 73.1014V76.0741H64.614ZM63.241 75.5454C63.9709 75.5454 64.5879 74.9994 64.5879 74.3061V73.9074H63.2757C62.5545 73.9074 62.2243 74.2194 62.2243 74.7394C62.2243 75.2334 62.5893 75.5454 63.241 75.5454ZM71.2724 76.0741H70.5338V74.1501H68.1094V76.0741H67.3708V71.7061H68.1094V73.5088H70.5338V71.7061H71.2724V76.0741ZM74.4463 76.0741H73.4035V71.7061H74.1248V75.0861H74.316L76.2364 71.7061H77.3139V76.0741H76.5926V72.6941H76.4015L74.4463 76.0741ZM80.4878 76.0741H79.445V71.7061H80.1663V75.0861H80.3574L82.2778 71.7061H83.3554V76.0741H82.6341V72.6941H82.443L80.4878 76.0741ZM82.1388 69.7994H82.7384C82.7123 70.6054 82.217 71.0648 81.3828 71.0648C80.5573 71.0648 80.062 70.6054 80.0359 69.7994H80.6355C80.6442 70.2414 80.8701 70.5361 81.3828 70.5361C81.9129 70.5361 82.1127 70.2414 82.1388 69.7994Z" fill="#3393CA"/>
</svg>
