<svg width="29" height="29" viewBox="0 0 29 29" fill="none" xmlns="http://www.w3.org/2000/svg">
<path fill-rule="evenodd" clip-rule="evenodd" d="M27.3889 20.1389C25.375 20.1389 23.4417 19.8167 21.6372 19.2206C21.354 19.1303 21.0515 19.1187 20.7621 19.1867C20.4727 19.2548 20.2072 19.4001 19.9939 19.6072L16.4494 23.1517C11.8758 20.8256 8.15831 17.1081 5.83222 12.5344L9.37667 8.97389C9.59005 8.77144 9.74129 8.51234 9.81263 8.22698C9.88397 7.94162 9.87246 7.64183 9.77944 7.36278C9.16828 5.50687 8.85824 3.56506 8.86111 1.61111C8.86111 0.725 8.13611 0 7.25 0H1.61111C0.725 0 0 0.725 0 1.61111C0 16.7394 12.2606 29 27.3889 29C28.275 29 29 28.275 29 27.3889V21.75C29 20.8639 28.275 20.1389 27.3889 20.1389ZM25.7778 14.5H29C29 10.6544 27.4723 6.96624 24.7531 4.24695C22.0338 1.52768 18.3457 0 14.5 0V3.22222C20.735 3.22222 25.7778 8.265 25.7778 14.5ZM22.5556 14.5H19.3333C19.3333 11.8256 17.1744 9.66667 14.5 9.66667V6.44444C18.9467 6.44444 22.5556 10.0533 22.5556 14.5Z" fill="#2A2D41"/>
</svg>
