<svg width="11" height="11" viewBox="0 0 11 11" fill="none" xmlns="http://www.w3.org/2000/svg">
<path fill-rule="evenodd" clip-rule="evenodd" d="M10.3889 7.63889C9.625 7.63889 8.89167 7.51667 8.20722 7.29056C8.09977 7.25633 7.98505 7.2519 7.87528 7.27773C7.76551 7.30355 7.6648 7.35868 7.58389 7.43722L6.23944 8.78167C4.50462 7.89936 3.09453 6.48927 2.21222 4.75444L3.55667 3.40389C3.63761 3.3271 3.69497 3.22882 3.72203 3.12058C3.74909 3.01234 3.74472 2.89862 3.70944 2.79278C3.47762 2.08881 3.36002 1.35227 3.36111 0.611111C3.36111 0.275 3.08611 0 2.75 0H0.611111C0.275 0 0 0.275 0 0.611111C0 6.34944 4.65056 11 10.3889 11C10.725 11 11 10.725 11 10.3889V8.25C11 7.91389 10.725 7.63889 10.3889 7.63889ZM9.77778 5.5H11C11 4.04131 10.4205 2.64236 9.38909 1.61091C8.35764 0.579463 6.95869 0 5.5 0V1.22222C7.865 1.22222 9.77778 3.135 9.77778 5.5ZM8.55556 5.5H7.33333C7.33333 4.48556 6.51444 3.66667 5.5 3.66667V2.44444C7.18667 2.44444 8.55556 3.81333 8.55556 5.5Z" fill="#9496A0"/>
</svg>
