<svg width="17" height="17" viewBox="0 0 17 17" fill="none" xmlns="http://www.w3.org/2000/svg">
<path fill-rule="evenodd" clip-rule="evenodd" d="M16.0556 11.8056C14.875 11.8056 13.7417 11.6167 12.6839 11.2673C12.5179 11.2143 12.3406 11.2075 12.1709 11.2474C12.0012 11.2873 11.8456 11.3725 11.7206 11.4939L9.64274 13.5717C6.96168 12.2081 4.78246 10.0289 3.41889 7.34777L5.49667 5.26056C5.62176 5.14188 5.71041 4.98999 5.75223 4.82271C5.79405 4.65543 5.7873 4.4797 5.73277 4.31611C5.37451 3.22816 5.19276 2.08986 5.19444 0.944444C5.19444 0.425 4.76944 0 4.25 0H0.944444C0.425 0 0 0.425 0 0.944444C0 9.81274 7.18723 17 16.0556 17C16.575 17 17 16.575 17 16.0556V12.75C17 12.2306 16.575 11.8056 16.0556 11.8056ZM15.1111 8.5H17C17 6.24566 16.1044 4.08365 14.5104 2.48959C12.9163 0.895534 10.7544 0 8.5 0V1.88889C12.155 1.88889 15.1111 4.845 15.1111 8.5ZM13.2223 8.5H11.3333C11.3333 6.93223 10.0677 5.66667 8.5 5.66667V3.77777C11.1067 3.77777 13.2223 5.89333 13.2223 8.5Z" fill="#00A0E3"/>
</svg>
