<svg width="43" height="42" viewBox="0 0 43 42" fill="none" xmlns="http://www.w3.org/2000/svg">
<path d="M1.16241 21.2886C-0.442462 22.1271 -0.375881 23.3552 1.30667 24.0183L6.29189 25.9826C7.97583 26.6485 10.5239 26.2852 11.9512 25.1759L33.5997 8.17356C35.0228 7.05877 35.1754 7.22316 33.9395 8.54101L16.8255 26.7838C15.5854 28.0976 15.9516 29.711 17.6411 30.3617L18.2251 30.5882C19.9146 31.2389 22.668 32.3316 24.3463 33.0112L29.8753 35.2532C31.5551 35.9329 33.35 35.1317 33.8272 33.3911L42.2538 2.54434C42.7295 0.80377 41.8057 0.0647189 40.2009 0.90185L1.16241 21.2886Z" fill="#00A0E3"/>
<path d="M14.8433 41.4834C14.7448 41.7776 18.2527 36.4247 18.2527 36.4247C19.2445 34.9162 18.6814 33.1162 17.0057 32.4338L13.1801 30.8742C11.5045 30.1918 10.7014 30.993 11.3949 32.6604C11.3949 32.6604 14.9445 41.1809 14.8433 41.4834Z" fill="#00A0E3"/>
</svg>
