<svg width="16" height="10" viewBox="0 0 16 10" fill="none" xmlns="http://www.w3.org/2000/svg">
<path d="M14.893 0.76195H12.3859C12.1774 0.761949 11.9858 0.876575 11.8872 1.06028C11.8872 1.06028 10.8873 2.90175 10.5662 3.522C9.70211 5.19052 9.14258 4.66671 9.14258 3.89234V1.22227C9.14258 0.757649 8.76593 0.380998 8.30131 0.380998H6.41636C5.89443 0.342192 5.38962 0.576431 5.08226 1.00005C5.08226 1.00005 6.03941 0.845288 6.03941 2.13496C6.03941 2.45477 6.05588 3.37476 6.07089 4.14639C6.07669 4.3793 5.9366 4.5911 5.72 4.67691C5.5034 4.76272 5.25627 4.70432 5.10099 4.53063C4.32945 3.45755 3.69036 2.29521 3.1976 1.06885C3.11118 0.881512 2.92359 0.76165 2.71729 0.76195C2.17359 0.76195 1.08561 0.76195 0.439488 0.76195C0.312305 0.761085 0.192813 0.822759 0.119843 0.926932C0.0468735 1.0311 0.0297399 1.16448 0.0740103 1.28371C0.76566 3.1809 3.74507 9.1429 7.14576 9.1429H8.57711C8.88941 9.1429 9.14258 8.88973 9.14258 8.57743V7.71313C9.14258 7.49153 9.27425 7.29112 9.47763 7.20315C9.68101 7.11517 9.91722 7.15644 10.0787 7.30818L11.7919 8.91785C11.9458 9.06241 12.149 9.14289 12.3601 9.1429H14.6099C15.6949 9.1429 15.6949 8.38996 15.1033 7.80733C14.687 7.3973 13.1846 5.81371 13.1846 5.81371C12.9188 5.53831 12.8934 5.11022 13.1249 4.80538C13.6105 4.16632 14.4048 3.12024 14.7417 2.6721C15.2021 2.05957 16.0354 0.76195 14.893 0.76195Z" fill="#959199"/>
</svg>
